<svg xmlns="http://www.w3.org/2000/svg" id="uuid-ab8c121d-96bd-4b16-9fa2-68b53b2682a5" viewBox="0 0 196.02 278.39"><defs><style>.uuid-a783affb-47dd-44ad-88f2-583bf04dd17b{fill:#68a95a}</style></defs><path d="M184.09 78.15c-18.68 1.22-36.23 10.49-50.05 22.75-7.43 6.59-13.98 14.23-19.23 22.67-3.32 5.34-6.69 19.93-11.33 22.7.36-.21-.23-9.15-.16-10.2.23-3.49.39-6.98.48-10.48.31-12.61-1.25-25.4 2.09-37.72 3.32-11.58 7.66-22.08 8.33-34.32 1.2-22-8.2-46.36-31.27-52.61-19.18-5.2-21.38 12.05-21.47 27.52-.13 22.72 8.33 46.98 25.63 62.22 4.09 3.6 4.27.03 6.04 7.44v56.94c-.24 1.09.82 3.24-.99 2.99-3.24-11.06-8.73-21.55-16.03-30.44-5.27-6.42-10.47-10.8-16.96-15.51-10.12-10.41-26.35-17.48-40.74-19.71-4.25-.66-15.58-2.78-17.72 1.72-2.89 6.08 3.79 25.47 6.5 31.97 6.48 15.6 16.27 29.9 28.71 41.35 14.67 13.5 31.09 19.3 49.61 25.68 1.49.51 3.01 1.04 4.22 2.05 2.63 2.18 3.14 5.96 3.37 9.37.96 13.81.48 27.65.09 41.47-.2 6.99-.38 13.98-.34 20.98 0 1.67.03 3.34.07 5.02.03 1.17-.43 4.09.18 5.07 1.08 1.74 6.8 1.29 8.66 1.17.32-.02.65-.05.95-.18 1.73-.76 1.41-4.1 1.45-5.57.8-26.44-.62-52.88.18-79.32.05-1.57.12-3.22.93-4.56.68-1.13 1.79-1.91 2.9-2.61 13.71-8.79 29.09-13.04 42.22-23.42 22.61-17.87 44.89-47.15 45.59-77.12.18-7.75-5.65-7.74-11.92-7.33Z" style="fill:#528d4d"/><path d="m89.87 187.75-7.13-17.34c-6.16-17.25-16.78-27.77-27.84-41.1-.93-1.12-2.42-1.62-1.99-3.49 11.38 5.04 19.74 16.1 25.78 26.67 5.91 10.35 11.95 23.14 11.18 35.26M99.62 184.32l7.13-17.34c6.16-17.25 16.78-27.77 27.84-41.1.93-1.12 2.42-1.62 1.99-3.49-11.38 5.04-19.74 16.1-25.78 26.67-5.91 10.35-11.95 23.14-11.18 35.26" class="uuid-a783affb-47dd-44ad-88f2-583bf04dd17b"/></svg>