<?xml version="1.0" encoding="UTF-8"?><svg id="uuid-17ab81c5-7b94-4664-a3d9-ed2632264f8f" xmlns="http://www.w3.org/2000/svg" viewBox="0 0 202.23 421.56"><defs><style>.uuid-6ae4551a-7037-480b-8dc9-8dd7c682e978{fill:#68a95a;}.uuid-054c7d04-7d7a-44f5-ab59-10c6cb68b0e1{fill:#fc8d3f;}.uuid-b12722da-6bfb-4909-abd1-542aabba47e9{fill:#db682e;}.uuid-3fd65ab6-eced-4d93-8fdc-eb33190f0efa{fill:#528d4d;}</style></defs><path class="uuid-054c7d04-7d7a-44f5-ab59-10c6cb68b0e1" d="M104.07,2.96c-.07.31.08,5.74.17,6.25.67,3.74,6.28,13.47,7.87,18.19,6.34,18.82,8.56,41.02,4.49,60.51-1.19,5.69-4.79,11.45-5.85,16.16-.34,1.5.56,4.52.32,4.79-.37.41-3.82-1.21-2.99,2-.32.06-.67-.05-1,0-3.4.56-7.61,1.35-10.99,1-34.16-3.55-29.79-53.24-23.25-76.69C75.02,27.32,84.14,1.68,92.82.12c5.07-.91,6.98,4.94,11.25,2.85Z"/><path class="uuid-b12722da-6bfb-4909-abd1-542aabba47e9" d="M108.07,110.86c-.83-3.21,2.62-1.59,2.99-2,.25-.27-.65-3.28-.32-4.79,1.06-4.7,4.66-10.47,5.85-16.16,4.07-19.49,1.85-41.7-4.49-60.51-1.59-4.72-7.19-14.44-7.87-18.19-.09-.51-.23-5.94-.17-6.25.6-2.74,5.58-3.6,7.97-2.49,6.36,2.95,14.01,20,16.3,26.68,8.75,25.61,15.4,76.73-20.27,83.7Z"/><path class="uuid-3fd65ab6-eced-4d93-8fdc-eb33190f0efa" d="M202.01,267.71c-2.29-1.6-.16-6.27-1.14-7.85s-7.46-.25-8.86-2.14c9.2-.29,10.92.08,9.99,9.99Z"/><path class="uuid-3fd65ab6-eced-4d93-8fdc-eb33190f0efa" d="M173.03,324.65c-3.85,4.34-7.61,8.18-11.99,11.99l9.07-10.18,2.92-1.81Z"/><path class="uuid-3fd65ab6-eced-4d93-8fdc-eb33190f0efa" d="M200.87,259.85c-.99-1.6-7.46-.25-8.86-2.14-.33.01-.67-.02-1,0-41.92,2.97-69,37.01-83.9,72.95,0-21.82-.04-43.64-.04-65.46,0-.44,1.53-4.41,1.96-5.04,2.47-3.64,21.23-9.24,26.9-12.07,28.79-14.33,57.57-48.78,64.4-80.47,3.18-14.76,3.56-17.07-12.85-15.85-10.54.79-21.75,5.41-30.44,11.03-20.05,10.04-37.41,29.89-44.97,50.95-1.72,3.09-2.39,4.47-3.75,7.79-.61,1.5.6,2.71-2.25,2.19l1-112.88c-3.4.56-7.61,1.35-10.99,1v114.88s-6.14-15.34-6.14-15.34c-12.43-31.11-40.84-50.24-71.94-58.32-4.12-1.07-11.64-3.22-15.04.55-2.96,3.28-1.08,9.46-.37,13.23,2.22,11.8,9.15,26.71,15.54,36.91,2.65,4.23,5.82,8.15,8.99,11.99,8.57,10.38,19.83,21.05,31.98,26.97,2.86,1.96,5.47,3.99,8.78,5.71,6.38,3.31,28.2,8.42,28.2,15.77v67.43c-4.03-11.8-10.2-22.8-17.35-33.08-8.74-12.55-22-23.42-35.71-30.54-5.78-3.01-40.48-18.28-42.86-5.78-1.28,6.69,5.8,25.41,8.81,32.11,8.26,18.38,21.92,34.19,37.46,46.86,6.74,5.5,14.1,10.14,21.9,13.98,4.08,2.01,8.25,3.81,12.47,5.49,2.42.96,12.09,2.91,13.28,4.92,1.05,1.77,1.83,3.33,2.03,5.47,1.44,16.06-1.13,34.19-.03,50.48.33,0,.67,0,1,0,3.32,0,6.67,0,9.99,0v-1c-.48-16.27.64-32.7,0-48.95,2.21-10.68,13.97-10.85,22.66-14.81,12.07-5.5,21.34-11.47,31.31-20.15l9.07-10.18,2.92-1.81c12.16-13.7,27.26-38.4,28.98-56.94-2.29-1.6-.16-6.27-1.14-7.85Z"/><path class="uuid-6ae4551a-7037-480b-8dc9-8dd7c682e978" d="M96.7,257.65l-7.13-17.34c-6.16-17.25-16.78-27.77-27.84-41.1-.93-1.12-2.42-1.62-1.99-3.49,11.38,5.04,19.74,16.1,25.78,26.67,5.91,10.35,11.95,23.14,11.18,35.26Z"/><path class="uuid-6ae4551a-7037-480b-8dc9-8dd7c682e978" d="M106.45,254.22l7.13-17.34c6.16-17.25,16.78-27.77,27.84-41.1.93-1.12,2.42-1.62,1.99-3.49-11.38,5.04-19.74,16.1-25.78,26.67-5.91,10.35-11.95,23.14-11.18,35.26Z"/><path class="uuid-6ae4551a-7037-480b-8dc9-8dd7c682e978" d="M96.7,363.32l-7.13-17.34c-6.16-17.25-16.78-27.77-27.84-41.1-.93-1.12-2.42-1.62-1.99-3.49,11.38,5.04,19.74,16.1,25.78,26.67,5.91,10.35,11.95,23.14,11.18,35.26Z"/><path class="uuid-6ae4551a-7037-480b-8dc9-8dd7c682e978" d="M106.45,359.89l7.13-17.34c6.16-17.25,16.78-27.77,27.84-41.1.93-1.12,2.42-1.62,1.99-3.49-11.38,5.04-19.74,16.1-25.78,26.67-5.91,10.35-11.95,23.14-11.18,35.26Z"/></svg>