<?xml version="1.0" encoding="UTF-8"?><svg id="uuid-04176c8f-c5e6-4019-8ae2-37be550807ff" xmlns="http://www.w3.org/2000/svg" viewBox="0 0 176.56 174"><defs><style>.uuid-c62ea88f-9b08-492b-947b-8193be67424a{fill:#528d4d;}</style></defs><path class="uuid-c62ea88f-9b08-492b-947b-8193be67424a" d="M29.56,21.15c32.35,8.34,45.31,30.62,57.87,58.53.36.81.61,3.34,2.09,1.41.33-.43,1.08-8.48,1.72-10.77C100.36,37.77,126.37,8.52,160.42,1.62c9.53-1.93,16.82-4.52,16.09,8.07-.93,16.07-12.73,38.32-23.03,50.42l-10.99,10.99c-5.91,5.14-12.04,9.77-18.97,13.51-6.39,3.45-23.72,8.35-27,10.98-2.36,1.89-1.69,5.56-3.01,5.49-.14,0-1.02-1.69-1-.5.23,21.98-.28,43.97-.01,65.95.02,1.69-.64,4.44,1.02,5.48v2c-3.32,0-6.67,0-9.99,0v-1c1.66-1.04,1-3.79,1.02-5.48.23-18.43,1.79-43.35.05-61.06-.2-2.08-.55-2.05-1.07-3.39-3.37-8.67-16.46-9.24-24.26-12.21-11.95-4.55-19.29-9.39-28.7-17.76-3.67-3.27-6.75-7.32-10.99-9.99-.32-.35-.69-.64-1-1,.01-1.48-.58-2.52-2-3-4.3-5.35-4.84-5.16-7.99-11.99S2.83,32.63.58,25.15c-.1-1.09-1.25.05,0-3l5.47-2.02,23.51,1.03Z"/><path class="uuid-c62ea88f-9b08-492b-947b-8193be67424a" d="M93.52,101.07v70.93c-1.66-1.04-1-3.79-1.02-5.48-.27-21.98.24-43.97.01-65.95-.01-1.19.86.49,1,.5Z"/><path class="uuid-c62ea88f-9b08-492b-947b-8193be67424a" d="M83.53,173v-69.93c.52,1.34.86,1.31,1.07,3.39,1.74,17.71.18,42.63-.05,61.06-.02,1.69.64,4.44-1.02,5.48Z"/><path class="uuid-c62ea88f-9b08-492b-947b-8193be67424a" d="M29.56,21.15l-23.51-1.03-5.47,2.02c.48-1.16-.16-1.79,1.64-2.82,5.06-2.89,21.35.28,27.34,1.82Z"/><path class="uuid-c62ea88f-9b08-492b-947b-8193be67424a" d="M8.57,47.13C3.91,41.57,1.22,32.28.58,25.15c2.25,7.48,4.72,14.88,7.99,21.98Z"/><path class="uuid-c62ea88f-9b08-492b-947b-8193be67424a" d="M19.57,63.11c4.25,2.67,7.32,6.72,10.99,9.99-4-1.81-7.98-6.7-10.99-9.99Z"/><path class="uuid-c62ea88f-9b08-492b-947b-8193be67424a" d="M18.57,62.11c-1.3-1.49-1.53-2.41-2-3,1.41.48,2.01,1.52,2,3Z"/><path class="uuid-c62ea88f-9b08-492b-947b-8193be67424a" d="M153.48,60.11c-3.53,4.15-6.89,7.42-10.99,10.99l10.99-10.99Z"/></svg>