<?xml version="1.0" encoding="UTF-8"?><svg id="uuid-ae495176-d926-477d-aace-3019658436e4" xmlns="http://www.w3.org/2000/svg" viewBox="0 0 221.35 507.47"><defs><style>.uuid-5f3737b3-6efc-43ac-8a59-110507abf8e2{fill:#f4833a;}.uuid-b23f3334-cf1d-4d06-9589-77df661d9871{fill:#68a95a;}.uuid-d6cbfdc6-f499-4b60-b673-d4572693900b{fill:#fc8d3f;}.uuid-9b51924b-063f-4883-a92e-7b3b436ca508{fill:#db682e;}.uuid-0b383f02-c163-49ed-b2d8-5648b5e863f5{fill:#4a240f;}.uuid-e182fdba-6e82-48a7-ba39-cef07019f8b8{fill:#49863f;}.uuid-2f09ffc3-276d-4887-a734-6196a1f23457{fill:#528d4d;}</style></defs><path class="uuid-d6cbfdc6-f499-4b60-b673-d4572693900b" d="M86.25,129.87c-12.99,5.25-36.06,17.09-48.92,19.52-5.86,1.11-10.27.69-11.06-6.02-2.55-21.78,9.75-45.15,32.21-49.75l8.77-1.71c-2.15-.89-4.83-3.36-6.52-4.98-9.81-9.45-20.85-19.98-29.96-29.99-2.47-2.71-10.78-11.29-10.32-14.27.83-5.39,10.98-7.69,15.58-8.47,10.93-1.85,23.04-.25,33.21,4.26,5.92,2.62,10.15,7.51,16,9.47-.09-12.68,3.98-29.34,12.02-39.43,22.6-28.36,41.66,21.7,39.96,40.43l19-11.47c11.98-5.01,26.62-5.63,38.74-.8,11.31,4.5,7.85,8.98,1.73,16.28-9.74,11.63-23.76,25.61-34.97,35.98-1.75,1.62-3.93,2.66-5.52,4.47,26.07.31,43.99,25.91,39.91,50.89-.99,6.06-4.86,6.08-9.99,5.1-14.83-2.84-37.93-13.84-52.91-19.52-4.14-1.57-19.89-8.92-22.49-9.08-2.73-.18-15.89,5.23-19.4,6.66-.67.27-.92,1.36-1.08,1.43-.29.12-.71-.12-1,0-.72.29-1.77.5-3,1ZM107.24,61.93c.32.63.05,1.19,1,2,.39.33,1.41.72,2,1v42.95c2.05.3,3.17-1.17,3-2.99,1.11-12.47-1.47-27.35-.07-39.51.28-2.43,5.04-3.81,3.98-12.85-1.75-14.97-17.62-5.69-9.91,9.4ZM81.26,64.93c-4.05,4.04-.36,9.36,3,12.99,2.59,2.8,5.11,3.62,6.44,5.05s2.99,6.91,4.56,8.93c-.07-.01-.32,1.58-.99,1-.24-.21-1.25-4.51-2.55-5.95-2.63-2.9-2.16.52-3.2.89-4.31,1.56-11.3-.46-12.25,6.05,8.37,1.17,14.74,7.15,22.34,10.19,2.45.98,1,.92,2.65-1.19,1.85,3.23,2.95,8.17,7.99,6.5-4.15-7.78-13.98-19.72-16.25-27.8-1.82-6.5,2.8-6.03-3.73-14.66-.29-.38-.67-.66-1-1s.55-2.85-3.61-2.98c-2.79-.09-2.24.84-3.39,1.98ZM130.23,81.91c-.1,4.77-10.61,16.5-10,21.47.49,3.98,4.65-4.9,5.01-5.49l.49,3.99c2.12-2.43,15.78-6.28,16.49-7,2.62-2.61-6.15-1.99-7.28-2.2-1.39-.25-2.96-1.89-4.15-1.86-.85.03-.81,2.03-1.54,2.54-.47.33-.98-.51-1.02-.47l5-10.99c7.66-.88,15.43-18.13,4.5-18.09-6.17.03-8.46,8.33-8.56,13.64-.04,1.83,1.08,3.82,1.06,4.45Z"/><path class="uuid-9b51924b-063f-4883-a92e-7b3b436ca508" d="M133.22,129.87c-2.48,9.33-6.37,23.37-12.99,30.48-1.35,1.45-3.16,1.72-4,2.49-.31.29-.86.41-1,1-2.2-.24-4.91.35-7,0-.49-.08-1.42-.7-2-1-7.69-3.89-14.63-25.47-15.99-33.97.16-.07.41-1.15,1.08-1.43,3.51-1.43,16.68-6.83,19.4-6.66s18.34,7.51,22.49,9.08Z"/><path class="uuid-e182fdba-6e82-48a7-ba39-cef07019f8b8" d="M39.28,243.76l-4.24-.25-16.75-4.74c8.69.95,12.78,1.86,20.99,5Z"/><path class="uuid-5f3737b3-6efc-43ac-8a59-110507abf8e2" d="M89.25,128.87l-3,1c1.23-.5,2.27-.7,3-1Z"/><path class="uuid-2f09ffc3-276d-4887-a734-6196a1f23457" d="M208.19,343.8c-38.96,3.68-70.34,29.84-86.13,65.13,0,0-4.82,12.66-4.82,12.66v-63.44c0-.99,2.9-4.91,4.27-5.72,5.29-3.14,17.57-5.62,24.39-8.59,34.37-14.95,72.59-56.78,75.26-95.59.27-3.9.91-7.47-2.98-9.48-4.39-2.28-15.74-.85-20.99,0-31.08,5.01-60.66,32.01-73.13,60.27l-6.81,17.65-1.01-152.85v-1c-.31.29-.86.41-1,1-2.2-.24-4.91.35-7,0-.49-.08-1.42-.7-2-1v153.85l-.99,1c.14-3.42-1.89-6.15-3.01-8.99-7.49-19.1-19.94-36.59-36.36-49.27-15.08-11.65-38.21-23.15-57.85-22.07-16.85.93-2.5,29.81.89,36.97,15.74,33.29,43.39,62.25,79.09,73.55,6.28,1.99,13.44,4.02,16.49,9.86,1.7,3.27,1.73,7.12,1.73,10.8-.04,16.98-.08,33.95-.13,50.93-2.76-6.63-5.53-13.27-8.91-19.61-8.61-16.15-21.26-30.22-36.72-40.02-15.31-9.71-33.29-15.03-51.43-15.02-3.31,0-5.38,1.1-5.57,4.51-1.86,34.61,28.28,70.55,55.8,88.25,5.2,3.35,9.59,6.51,15.31,9.17,5.34,2.49,11.15,4.08,16.68,6.12,4.25,1.57,9.57,2.57,12.44,6.41,3.15,4.22,2.91,10.73,2.87,15.7-.04,5.85-.08,11.69-.13,17.54-.02,2.98-1.86,12.79,1.46,14.47.98.49,2.12.5,3.21.49,2.08-.01,4.16-.02,6.24-.04.07-11.85-.12-23.75-.42-35.6-.06-4.31-.01-8.96,2.51-12.46,2.85-3.94,8-5.29,12.67-6.65,20.56-5.98,42.79-17.92,56.07-35.14,6.34-8.22,13.09-15.49,18.27-24.76s9.68-20,12.66-30.68c2.39-8.57,5.11-19.35-7.29-18.63-1.22.07-2.44.16-3.64.28ZM100.26,409.59c.14.02.26.02.36,0-.1.02-.22.01-.36,0ZM100.95,409.44s.07-.05.1-.09c-.02.03-.06.06-.1.09ZM100.71,409.57c.06-.02.12-.03.17-.06-.05.03-.11.04-.17.06ZM101.23,408.62s0,0,0,.02c0-.01,0-.02,0-.02ZM101.22,408.77s0,.05,0,.08c0-.02,0-.05,0-.08ZM101.2,408.96s-.02.07-.03.1c0-.03.02-.07.03-.1ZM101.15,409.16s-.03.07-.05.1c.02-.03.04-.07.05-.1ZM106.91,360.64c0,.07,0,.13,0,.2-.03-.02-.07-.05-.09-.06.03-.04.06-.09.09-.13ZM107.24,467.99c-.02-.48.04-.98.09-1.44,0,2,0,4,.01,6-.03-1.52-.05-3.05-.1-4.57ZM106.01,464.46c.11-.02.21-.04.32-.03.13,0,.24.05.35.11-.18-.06-.4-.08-.67-.07ZM107.5,405.89c.16-11.85-.43-23.77-.41-35.63.13,7.07.27,14.14.4,21.22.09,4.8.18,9.62.01,14.41Z"/><path class="uuid-9b51924b-063f-4883-a92e-7b3b436ca508" d="M101.24,102.89c-1.65,2.11-.2,2.17-2.65,1.19-7.6-3.04-13.97-9.03-22.34-10.19.94-6.51,7.94-4.49,12.25-6.05,1.04-.38.57-3.79,3.2-.89,1.3,1.44,2.31,5.74,2.55,5.95.67.59.92-1.01.99-1,1.12.19,4.95,9.16,6,10.99Z"/><path class="uuid-9b51924b-063f-4883-a92e-7b3b436ca508" d="M128.23,92.9s.55.8,1.02.47c.73-.51.69-2.51,1.54-2.54,1.2-.04,2.77,1.6,4.15,1.86,1.13.21,9.9-.41,7.28,2.2-.72.72-14.38,4.57-16.49,7l-.49-3.99c1.12-1.86,1.33-3.17,3-5Z"/><path class="uuid-0b383f02-c163-49ed-b2d8-5648b5e863f5" d="M137.72,63.83c-6.17.03-8.46,8.33-8.56,13.64-.04,1.83,1.08,3.82,1.06,4.45-.1,4.77-10.61,16.5-10,21.47.49,3.98,4.65-4.9,5.01-5.49,1.12-1.86,1.33-3.17,3-5l5-10.99c7.66-.88,15.43-18.13,4.5-18.09Z"/><path class="uuid-0b383f02-c163-49ed-b2d8-5648b5e863f5" d="M92.98,81.59c-1.82-6.5,2.8-6.03-3.73-14.66-.29-.38-.67-.66-1-1-.32-.33.55-2.85-3.6-2.98-2.79-.09-2.24.84-3.39,1.98-4.05,4.04-.36,9.36,3,12.99,2.59,2.8,5.11,3.62,6.44,5.05,1.39,1.5,2.99,6.91,4.56,8.93,1.12.19,4.95,9.16,6,10.99,1.85,3.23,2.95,8.17,7.99,6.5-4.15-7.78-13.98-19.72-16.25-27.8Z"/><path class="uuid-0b383f02-c163-49ed-b2d8-5648b5e863f5" d="M113.17,65.38c.28-2.43,5.04-3.81,3.98-12.85-1.75-14.97-17.62-5.69-9.91,9.4.32.63.05,1.19,1,2,.39.33,1.41.72,2,1v42.95c2.05.3,3.17-1.17,3-2.99,1.11-12.47-1.47-27.35-.07-39.51Z"/><path class="uuid-b23f3334-cf1d-4d06-9589-77df661d9871" d="M105.8,455.26l-7.13-17.34c-6.16-17.25-16.78-27.77-27.84-41.1-.93-1.12-2.42-1.62-1.99-3.49,11.38,5.04,19.74,16.1,25.78,26.67,5.91,10.35,11.95,23.14,11.18,35.26Z"/><path class="uuid-b23f3334-cf1d-4d06-9589-77df661d9871" d="M115.55,451.83l7.13-17.34c6.16-17.25,16.78-27.77,27.84-41.1.93-1.12,2.42-1.62,1.99-3.49-11.38,5.04-19.74,16.1-25.78,26.67-5.91,10.35-11.95,23.14-11.18,35.26Z"/><path class="uuid-b23f3334-cf1d-4d06-9589-77df661d9871" d="M103.94,343.47c-2.11.31-1.62.12-2.23-1.26-1.61-3.62-2.39-8.92-4.01-12.97-6.23-15.65-10.93-20.01-20.28-32.67-2.95-3.99-2.02-5.39,2.05-2.05,14.08,11.59,23.35,30.87,24.48,48.95Z"/><path class="uuid-b23f3334-cf1d-4d06-9589-77df661d9871" d="M115.49,345.35c2.11.31,1.62.12,2.23-1.26,1.61-3.62,2.39-8.92,4.01-12.97,6.23-15.65,10.93-20.01,20.28-32.67,2.95-3.99,2.02-5.39-2.05-2.05-14.08,11.59-23.35,30.87-24.48,48.95Z"/></svg>