<?xml version="1.0" encoding="UTF-8"?><svg id="uuid-b2bdf354-801a-4aec-930b-7ef00c34682e" xmlns="http://www.w3.org/2000/svg" viewBox="0 0 242.08 410.69"><defs><style>.uuid-aa19e3e6-6167-4574-90b7-9f4a9a9b0c33{fill:#68a95a;}.uuid-f96a9371-b3fd-4ae2-81ee-965150522271{fill:#528d4d;}</style></defs><path class="uuid-f96a9371-b3fd-4ae2-81ee-965150522271" d="M114.79,410.69c-.92-11.28,1.25-24.42,0-35.47-1.98-17.58-20.05-17.71-33.23-22.73-38.72-14.74-68.58-48.3-78.02-88.84-1.12-4.8-3.69-15.99-3.54-20.35.3-8.5,16.23-5.1,22.23-4.32,37.87,4.92,70.19,30.44,86.42,64.46l6.14,16.34v-67.43c0-8.79-10.77-14.56-17.74-17.23-19.2-7.33-33.76-10.77-50.22-24.72-20.35-17.23-41.64-52.55-40.4-79.94.34-7.6,2.82-7.74,9.96-7.54,38.27,1.06,73.73,24.11,90.93,57.97l7.47,19v-84.42c0-5.09-13.26-18.87-16.38-24.58C85.44,67.16,84.05,2.18,120.25.05c37.3-2.19,35.33,62.01,26,84.93-5.14,12.64-19.47,24.26-19.47,37.48v81.42l4.82-12.67c10.51-30.38,50.43-67.25,83.63-67.25h18.99c3.7,0,2.74,8.68,2.48,11.47-3.63,39.33-33.97,76.64-69.27,92.6-10.63,4.81-30.04,7.96-36.48,17.48-1.01,1.5-4.17,8.48-4.17,9.82v65.44l9.47-22c17.2-34.19,59.78-63.31,98.99-60.98,8.28.49,6.99,5.39,6.34,12.43-3.88,41.78-38.06,81.66-75.16,98.7-8.94,4.1-29.49,8.71-35.05,14.91-3.52,3.92-3.77,7.04-4.6,11.89-.11.64-.92,1.51-1.07,3.38-.83,10.08.77,21.37.07,31.59-3.65,0-7.34,0-10.99,0ZM167.26,179.91v1c.65-.33.65-.67,0-1ZM165.76,180.92c-1.72-.28-5.53,1.54-3.99,2.98.88.83,3.72-1.63,3.99-2.98ZM82.81,183.92c-1.4-.72-2.67.63-1.99.98,1.4.72,2.67-.63,1.99-.98ZM160.76,183.92c-2.05-2.04-16.82,12.97-18.49,14.97-9.42,11.19-16.53,27.44-18.47,41.97l4.73-5.75c4.73-14.77,11.68-27.45,21.73-39.21,1.25-1.46,11.8-10.68,10.5-11.97ZM118.78,243.85c-1.26-12.06-6.07-24.78-12.18-35.27-5.19-8.91-13.02-18.84-22.79-22.67-1.27,1.22,8.75,10.06,9.96,11.51,11.8,14.18,15.54,26.89,22.74,43.2.54,1.22.51,2.95,2.26,3.23ZM77.32,300.8v1c.65-.33.65-.67,0-1ZM115.78,363.73c.77-12.12-5.27-24.91-11.18-35.26-6.03-10.57-14.4-21.63-25.78-26.67-.43,1.88,1.06,2.37,1.99,3.49,11.06,13.33,21.68,23.85,27.84,41.1l7.13,17.34Z"/><path class="uuid-f96a9371-b3fd-4ae2-81ee-965150522271" d="M126.79,410.69c-.33,0-.67,0-1,0,.69-10.22-.91-21.51-.07-31.59.15-1.87.96-2.74,1.07-3.38v34.97Z"/><path class="uuid-aa19e3e6-6167-4574-90b7-9f4a9a9b0c33" d="M115.78,363.73l-7.13-17.34c-6.16-17.25-16.78-27.77-27.84-41.1-.93-1.12-2.42-1.62-1.99-3.49,11.38,5.04,19.74,16.1,25.78,26.67,5.91,10.35,11.95,23.14,11.18,35.26Z"/><path class="uuid-aa19e3e6-6167-4574-90b7-9f4a9a9b0c33" d="M125.53,360.3l7.13-17.34c6.16-17.25,16.78-27.77,27.84-41.1.93-1.12,2.42-1.62,1.99-3.49-11.38,5.04-19.74,16.1-25.78,26.67-5.91,10.35-11.95,23.14-11.18,35.26Z"/><path class="uuid-aa19e3e6-6167-4574-90b7-9f4a9a9b0c33" d="M160.76,183.92c1.3,1.28-9.25,10.51-10.5,11.97-10.05,11.76-17,24.44-21.73,39.21l-4.73,5.75c1.94-14.53,9.05-30.78,18.47-41.97,1.68-1.99,16.44-17,18.49-14.97Z"/><path class="uuid-aa19e3e6-6167-4574-90b7-9f4a9a9b0c33" d="M118.78,243.85c-1.75-.27-1.72-2.01-2.26-3.23-7.21-16.31-10.94-29.01-22.74-43.2-1.21-1.45-11.23-10.29-9.96-11.51,9.77,3.83,17.6,13.76,22.79,22.67,6.11,10.49,10.92,23.21,12.18,35.27Z"/><path class="uuid-f96a9371-b3fd-4ae2-81ee-965150522271" d="M165.76,180.92c-.27,1.36-3.11,3.81-3.99,2.98-1.54-1.45,2.27-3.26,3.99-2.98Z"/><path class="uuid-f96a9371-b3fd-4ae2-81ee-965150522271" d="M82.81,183.92c.68.35-.58,1.7-1.99.98-.68-.35.58-1.7,1.99-.98Z"/><path class="uuid-f96a9371-b3fd-4ae2-81ee-965150522271" d="M167.26,179.91c.65.33.65.67,0,1v-1Z"/><path class="uuid-aa19e3e6-6167-4574-90b7-9f4a9a9b0c33" d="M77.32,300.8c.65.33.65.67,0,1v-1Z"/></svg>