<svg xmlns="http://www.w3.org/2000/svg" id="uuid-2f06de7b-e983-423b-aabd-a99739bf49d3" viewBox="0 0 208.48 281.41"><defs><style>.uuid-bb753208-c730-4efa-a542-e6ae5f28412d{fill:#68a95a}</style></defs><path d="M99.25 281.41c-1.11-20.04 1.47-41.62.04-61.48-.47-6.57-1.6-12.78-6.49-17.49-5.69-5.47-22.87-8.59-31.49-12.48-29.02-13.11-50.72-39.5-58.5-70.39-1.11-4.41-4.34-18.75-1.93-21.93 3.66-4.83 25.87-.54 31.82 1.04 22.52 6.02 46.1 25.11 57.74 45.18l7.82 16.66V89.09c0-2.74-14-22.76-16.27-30.69C76.65 39.72 77.31 1.34 103.62.03s27.61 41.29 22.33 58.81c-2.28 7.56-15.71 25.61-15.71 29.26v70.43l8.58-16.9c15.86-27.51 50.6-48.14 82.71-46.69 7.9.36 7.13 3.29 6.68 10.18-2.55 38.48-33.43 73.76-68.01 87.86-16.17 6.59-29.28 4.13-31 25.96-1.58 20.08 1.25 42.18.04 62.47zM63.78 146.54v1c.65-.33.65-.67 0-1m1.98 1.02c-.99.7.54 1.37 1.02 1.96.99-.66-.47-1.32-1.02-1.96m32.49 54.92c-1.13-18.08-10.4-37.36-24.48-48.95-4.06-3.34-5-1.95-2.05 2.05 9.35 12.66 14.05 17.02 20.28 32.67 1.61 4.06 2.39 9.36 4.01 12.97.61 1.37.13 1.57 2.23 1.26Z" style="fill:#528d4d"/><path d="M98.25 202.48c-2.11.31-1.62.12-2.23-1.26-1.61-3.62-2.39-8.92-4.01-12.97-6.23-15.65-10.93-20.01-20.28-32.67-2.95-3.99-2.02-5.39 2.05-2.05 14.08 11.59 23.35 30.87 24.48 48.95ZM107.72 202.48c2.11.31 1.62.12 2.23-1.26 1.61-3.62 2.39-8.92 4.01-12.97 6.23-15.65 10.93-20.01 20.28-32.67 2.95-3.99 2.02-5.39-2.05-2.05-14.08 11.59-23.35 30.87-24.48 48.95ZM63.78 146.54c.65.33.65.67 0 1z" class="uuid-bb753208-c730-4efa-a542-e6ae5f28412d"/></svg>