<?xml version="1.0" encoding="UTF-8"?><svg id="uuid-b8a59225-316a-4e65-a964-c5d865f8db2c" xmlns="http://www.w3.org/2000/svg" viewBox="0 0 257.86 575.81"><defs><style>.uuid-c3953588-6240-471c-b50d-5439cad5def7{fill:#68a95a;}.uuid-60996869-ad59-4540-9b64-5e0b68945db2{fill:#e9766c;}.uuid-d94214ec-1718-4daf-9907-5e2fb4bfa211{fill:#578b4e;}.uuid-5f6d4012-a770-4e97-9a84-6f9efdcafb8e{fill:#e8776c;}.uuid-2c791017-7e2a-474e-a134-87bc8efcc160{fill:#528c4d;}.uuid-5543e17c-45ee-40de-94ae-c8e58d987650{fill:#5d844e;}.uuid-975c877a-e678-493d-848f-e7a2f387c122{fill:#528d4d;}</style></defs><path class="uuid-975c877a-e678-493d-848f-e7a2f387c122" d="M124.01,575.81c-1.37-18.06,6.23-39.83-14.3-49.14-14.33-6.5-27.98-7.91-43.34-16.62C34.86,492.17-.22,447.15,0,409.48c.06-10.17,8.08-8.06,16.62-7.54,42.41,2.61,79.99,31.19,98.25,68.62l8.14,22.33v-77.42c0-.5-5.06-7.15-5.95-8.04-8.39-8.31-22.33-9.57-33.01-13.96-33.57-13.79-58.43-42.74-68.47-77.41-1.74-6.02-8.67-26.33.02-27.95,5.87-1.09,19.39,1.03,25.66,2.27,32.43,6.4,59.67,28.37,73.92,57.97l7.82,22.65v-49.45c0-5.4-17.79-23.55-15.99-32.47,1.89,1.65,3.83,2.77,6,4,.83,2.9.17,5.26,3.72,5.73,7,.93,17.12.63,23.79-1.71,2.3-.81,10.71-7.6,9.47-1.02-3.57,8.59-14.99,21.76-14.99,29.47v46.45l8.82-23.65c16.33-34.36,50.03-58.57,88.58-60.31,6.72-.3,14.73-1.94,14.61,6.53-.52,37.3-33.04,80.01-65.37,96.58-11.56,5.92-35.27,9.85-42.06,18.9-.83,1.1-3.58,5.5-3.58,6.41v75.43l8.81-23.67c13.01-30.87,55.38-65.25,89.63-65.25h20.99c5.17,0,.61,19.41-.18,22.8-9.22,39.94-38.97,76.3-77.01,91.85-10.64,4.35-31.34,6.98-37.76,15.2-7.6,9.73-5.73,30.24-4.48,41.98-3.04,0-7.91.99-11.99,1Z"/><path class="uuid-60996869-ad59-4540-9b64-5e0b68945db2" d="M104.02,212.17c-1.93-.22-4.41-2.15-5.4-1.92-.76.17-7.03,9.93-10.08,11.93-5.2,3.39-12.41,3.84-17.87.85-2.48-1.36-6.58-7.67-7.1-7.72-.34-.03-4.42,2.3-6.26,2.62-18.34,3.13-24.3-21.85-7.26-29.27,1.18-.51,3.75-.29,3.96-.5.35-.34-.13-7.47.13-9.36,1.15-8.32,9.4-14.94,17.9-13.58-3.54-4.3-8.37-7.17-11.96-11.51-18.93-22.82-.23-44.63,21.17-24.45,1.39,1.31,3.66,5.67,3.96,5.85,1.38.8,5.53-1.86,8.83-1.45,7.08.88,14.81,8.06,15.91,15.15,1.25,7.99-3.08,17.54.22,23.76,3.14,5.91,10.18,11.29,10.83,18.64.92,10.35-5.05,22.35-16.99,20.98Z"/><path class="uuid-60996869-ad59-4540-9b64-5e0b68945db2" d="M136,192.19c1.36-6.44,12.52-17.54,13.46-22.87.42-2.4-2.05-8.57-2.35-11.72-1.09-11.53,3.92-23.04,16.66-24.15,3.12-.27,7.71,2.45,9.05,1.66.24-.14,1.79-3.66,2.74-4.78,14.32-16.81,35.83-9.56,27.87,13.87-2.87,8.44-10.06,13.42-15.46,20,8.56,1.26,14.43,8.54,15.79,16.79.33,2-1.15,4.92.1,6.58.43.57,5.76,1.52,8.04,3.17,12.46,9.04,4.35,30.34-11.98,26.98-1.62-.33-4.81-2.38-5.46-2.32-.84.07-4.8,6.36-7.91,7.81-6.18,2.89-12.92,2.34-18.49-1.63-3.33-2.38-6.31-9.08-8.05-9.93-3.33-1.63-5.58.6-7,.51-3.5-.23-8.82-2.54-11.38-5.1-4.93-4.91-4.36-8.93-5.6-14.88ZM176.97,167.22c-1.99-.74-15.16,4.88-12.99,6.98l12.99-6.98ZM161.48,175.2v1c.65-.33.65-.67,0-1ZM160.98,177.21c-1.09-1.09-3.08.9-1.99,1.99s3.08-.9,1.99-1.99ZM158.98,180.21c-1.46-1.77-3.96,4.57-4.2,5.28-1.56,4.55-3.13,18.33.22,21.68,3.71,3.71.36-4.31.26-4.76-1.13-5.27-1.09-8.76.41-14.04.48-1.69,3.87-7.49,3.31-8.17Z"/><path class="uuid-5543e17c-45ee-40de-94ae-c8e58d987650" d="M135,74.3c-1.64,6.66-1.05,14.07-1,20.98.02,2.77-1.04,5.35-.94,7.43.06,1.17,2.95,12.12,3.41,12.58,4.05,4.01,9.42-1.01,12.53-2.4.51-.23.94.4.99.38-2.16,10.05-12.72,15.45-14.99,24.98-2.65,11.1-1.41,37.16,0,48.95.27,2.3.61,3.13,1,5,1.25,5.94.68,9.96,5.6,14.88,2.57,2.56,7.88,4.87,11.38,5.1-3.9,4.52-16.54,12.21-17.78,17.69-2.49,11.02,1.42,29.4-.21,41.25.78,3.29-1.09,23.87-.05,24.51,5.75,3.53,14.24-5.05,18.04-8.52.12,3.42-1.78,6.07-3,8.99,1.24-6.58-7.17.21-9.47,1.02-6.66,2.34-16.79,2.64-23.79,1.71-3.55-.47-2.89-2.83-3.72-5.73,3.22,1.82,7.15,5.46,10.99,3,.23-.15.71.06.75-.44l-.75-.56v-2c1.68-5.03,1.21-12.13,1-17.53-.08-1.92,1.03-4.01-2-3.45-.04-1.33.03-2.67,0-4-.03-1.66.03-3.33,0-5,1.66-1.04,1-3.79,1.02-5.48.1-7.87.95-19.34-1.02-26.49-.47-1.72.05-2.09-1.42-4.05-3.47-4.62-13.64-9.66-17.56-14.93,11.93,1.37,17.91-10.63,16.99-20.98,3.03.56,1.92-1.53,2-3.45.51-12.83,1.8-39.27-.06-50.94-.93-5.88-14.76-16.14-14.93-24.53,2.53,1.04,6.48,3.48,8.75,3.82,1.41.21,6.54-.28,7.09-.96,2.14-2.64.75-18.17-.86-21.83-.35-5.18.48-10.89,0-15.98,4.04-.71,8.05-1.91,11.99-3Z"/><path class="uuid-d94214ec-1718-4daf-9907-5e2fb4bfa211" d="M123.01,77.3c-.07-.76.43-1.67-.59-2.09-10.67-2.95-22.92-9.13-29.22-18.56-12.14-18.18,4.9-24.89,19.32-14.32l10.48,11.98c.3-3.89,1.48-7.5,1.03-11.51-.5-4.53-4.27-8.23-4.93-13.05-.81-5.91-1.56-27.06,5.61-29.17,16.57-4.89,15.81,22.12,13.03,32-.82,2.92-3.2,5.3-3.67,8.32-.74,4.71.39,10.56-.05,15.42,1.98-1.32,2.32-4.35,3.99-6.48,5.18-6.61,15.39-14.25,24.26-12.29,12.14,2.68,1.67,19.61-3.76,24.8-7.3,6.96-14.07,9.36-23.51,11.96-3.95,1.09-7.95,2.28-11.99,3Z"/><path class="uuid-5f6d4012-a770-4e97-9a84-6f9efdcafb8e" d="M123.01,268.11c.03,1.33-.04,2.67,0,4,.19,7.03,1,13.69,1,20.98v3c-3.84,2.46-7.77-1.18-10.99-3-2.17-1.22-4.1-2.35-6-4-3.82-3.33-6.51-7.81-10.52-10.97-5.68-4.47-12.94-6.64-18.79-11.18-22.67-17.61-4.63-40.21,19-28.98,13.18,6.26,19.79,17.83,26.3,30.15Z"/><path class="uuid-5f6d4012-a770-4e97-9a84-6f9efdcafb8e" d="M135,271.11c2.85-5.8,4.83-11.46,8.59-16.89,5.96-8.62,16.07-17.93,26.88-19.08,11.51-1.22,19.43,4.4,18.56,16.53-1.03,14.35-18.11,18.79-27.52,26.46-3.22,2.62-5.64,6.34-8.52,8.97-3.8,3.47-12.29,12.06-18.04,8.52-1.04-.64.83-21.22.05-24.51Z"/><path class="uuid-5f6d4012-a770-4e97-9a84-6f9efdcafb8e" d="M123.01,93.28c1.6,3.66,3,19.19.86,21.83-.55.68-5.68,1.17-7.09.96-2.28-.33-6.22-2.78-8.75-3.82-7.95-3.26-21.09-9.32-21.08-19.48,0-15.25,22.92-14.31,31.59-5.5.48.49,4.34,5.66,4.49,6Z"/><path class="uuid-5f6d4012-a770-4e97-9a84-6f9efdcafb8e" d="M134,95.28c4.54-10.56,23.36-20.16,32.4-10.91,11.65,11.94-7.12,24.4-16.41,28.89-.05.02-.47-.61-.99-.38-3.11,1.39-8.48,6.41-12.53,2.4-.46-.46-3.35-11.41-3.41-12.58-.1-2.08.96-4.66.94-7.43Z"/><path class="uuid-5543e17c-45ee-40de-94ae-c8e58d987650" d="M135,187.19c-1.41-11.79-2.65-37.85,0-48.95v48.95Z"/><path class="uuid-5543e17c-45ee-40de-94ae-c8e58d987650" d="M123.01,263.12c-.19-10.64.14-21.33,0-31.97,1.97,7.15,1.11,18.62,1.02,26.49-.02,1.69.64,4.44-1.02,5.48Z"/><path class="uuid-c3953588-6240-471c-b50d-5439cad5def7" d="M136.46,528.85l7.13-17.34c6.16-17.25,16.78-27.77,27.84-41.1.93-1.12,2.42-1.62,1.99-3.49-11.38,5.04-19.74,16.1-25.78,26.67-5.91,10.35-11.95,23.14-11.18,35.26Z"/><path class="uuid-c3953588-6240-471c-b50d-5439cad5def7" d="M136.46,403.31l7.13-17.34c6.16-17.25,16.78-27.77,27.84-41.1.93-1.12,2.42-1.62,1.99-3.49-11.38,5.04-19.74,16.1-25.78,26.67-5.91,10.35-11.95,23.14-11.18,35.26Z"/><path class="uuid-c3953588-6240-471c-b50d-5439cad5def7" d="M125.17,530.74l-7.13-17.34c-6.16-17.25-16.78-27.77-27.84-41.1-.93-1.12-2.42-1.62-1.99-3.49,11.38,5.04,19.74,16.1,25.78,26.67,5.91,10.35,11.95,23.14,11.18,35.26Z"/><path class="uuid-c3953588-6240-471c-b50d-5439cad5def7" d="M125.17,403.31l-7.13-17.34c-6.16-17.25-16.78-27.77-27.84-41.1-.93-1.12-2.42-1.62-1.99-3.49,11.38,5.04,19.74,16.1,25.78,26.67,5.91,10.35,11.95,23.14,11.18,35.26Z"/><path class="uuid-60996869-ad59-4540-9b64-5e0b68945db2" d="M158.98,180.21c.56.68-2.83,6.48-3.31,8.17-1.5,5.28-1.54,8.77-.41,14.04.1.45,3.45,8.47-.26,4.76-3.36-3.35-1.79-17.13-.22-21.68.24-.71,2.74-7.06,4.2-5.28Z"/><path class="uuid-60996869-ad59-4540-9b64-5e0b68945db2" d="M176.97,167.22l-12.99,6.98c-2.18-2.1,11-7.72,12.99-6.98Z"/><path class="uuid-60996869-ad59-4540-9b64-5e0b68945db2" d="M160.98,177.21c1.09,1.09-.9,3.08-1.99,1.99s.9-3.08,1.99-1.99Z"/><path class="uuid-60996869-ad59-4540-9b64-5e0b68945db2" d="M161.48,175.2c.65.33.65.67,0,1v-1Z"/><path class="uuid-2c791017-7e2a-474e-a134-87bc8efcc160" d="M123.01,272.11c3.03-.56,1.92,1.53,2,3.45.21,5.4.68,12.5-1,17.53,0-7.29-.8-13.94-1-20.98Z"/><path class="uuid-2c791017-7e2a-474e-a134-87bc8efcc160" d="M124.01,296.09v-1l.75.56c-.04.5-.52.29-.75.44Z"/></svg>