<?xml version="1.0" encoding="UTF-8"?><svg id="uuid-945b28b2-05b7-4ae1-89cd-9374f4555178" xmlns="http://www.w3.org/2000/svg" viewBox="0 0 168.98 157.21"><defs><style>.uuid-93debaf2-3a30-42f3-b529-16033a09a983{fill:#528c4d;}</style></defs><path class="uuid-93debaf2-3a30-42f3-b529-16033a09a983" d="M89.56,157.21c-3.32,0-6.67,0-9.99,0-1.04-17.38,1.38-36.29.04-53.48-1.49-19.08-12.75-17.76-26.69-24.27C25.2,66.54,6.01,43.2.9,12.59-.24,5.81-1.65,2.96,6.07,2.33,44.2-.83,76.58,30.1,85.06,65.31c5.85-27.06,27.44-52.24,53.93-60.98,5.52-1.82,24.06-6.16,28.52-3.48,3.6,2.16-.46,15.68-1.51,19.49-6.93,25.26-23.88,46.69-47.26,58.66-13.23,6.77-27.58,5.51-29.23,23.72-1.57,17.3,1.26,36.94.04,54.49Z"/></svg>