<?xml version="1.0" encoding="UTF-8"?><svg id="uuid-fc66b634-b690-4f9c-8322-d0bc749e0e0f" xmlns="http://www.w3.org/2000/svg" viewBox="0 0 194.06 156.08"><defs><style>.uuid-cc4351d1-7744-46f7-a455-b90c96ec6e37{fill:#4f9755;}.uuid-9d6d755f-5e57-41f3-bb9f-d24aca29fc51{fill:#6fb368;}</style></defs><path class="uuid-cc4351d1-7744-46f7-a455-b90c96ec6e37" d="M93.22,156.08c-1.22-18.25,1.63-38.54.04-56.54-.23-2.6-.76-5.61-2.18-7.82-2.88-4.5-21.8-7.69-28.07-9.93-23.04-8.21-45.96-26.02-56.53-48.47C3.31,26.57-5.74,3.33,5.4.74,6.98.37,20.4-.19,21.54.1c2.05.52-.85.82,5.23,1.08,21.92.93,50.95,25.12,60.1,44.24,5.15,10.75,7.55,23.31,10.85,34.68,5.5-31.7,22.66-64.19,54.71-75.3,7.91-2.74,13.06-1.47,19.11-2.69.86-.17.27-2.12,2.11-2.1,3.69.04,9.22.14,12.82.33,13.88.73,5.11,23.85,1.94,31.43-13.71,32.75-41.51,45.49-71.93,56.25-7.48,2.65-11.99.25-13.26,11.56-1.96,17.57,1.47,38.56,0,56.5h-1l-.5-58.01-.5,58.01h-8Z"/><polygon class="uuid-9d6d755f-5e57-41f3-bb9f-d24aca29fc51" points="102.22 156.08 101.22 156.08 101.72 98.07 102.22 156.08"/></svg>