<svg xmlns="http://www.w3.org/2000/svg" id="uuid-68cee7fc-4d23-44d5-a091-1308d448d7e6" viewBox="0 0 247.23 386.99"><defs><style>.uuid-2d6ef2ce-3b5c-4cc1-aeed-4392e49d2fee{fill:#6fb368}</style></defs><path d="m116.09 386.99.04-85.54c-1.71-18.87-16.06-14.38-30.25-16.75C36.45 276.47.17 236.43 0 185.5c-.02-7.34 2.3-12.06 9.85-13.24 46.69-7.28 88.41 22.5 100.5 66.97 2.71 9.98 3.25 20.1 4.76 30.26.26 1.74-.53 1.68 1.97 1.5.12-33.74.26-67.85-6.49-101-1.36-6.67-5.38-25.26-8.51-30.25-1.27-2.03-21.19-6.23-25.52-7.72-30.8-10.6-54.23-31.91-63.2-63.8-4.02-14.3-7.92-50.81 1.72-62.7C17.46 2.59 23.16.53 26.82.21c6.39-.56 21.35.1 27.51 1.04 52.08 7.95 88.69 53.69 72.22 106.71-2.58 8.31-13.43 25.15-13.47 31.53-.04 6.93 6.25 25.5 7.72 34.3 1.33 7.98 2.47 16.12 2.3 24.2 2.43 3.18 2.11-7.22 2.27-8.22 9.04-55.27 48.24-90.73 106.3-82.86 1.93.26 1.35 2.12 2 2.12 1.07 0 2.47-1.23 3.81-1.1.62.06.44 1.72 1.35 2.01 1.49.47 2.81-.2 4.85.98 5.58 3.22 3.15 19.56 2.3 25.46-6.84 47.75-42.58 82.09-90.51 87.49-13.11 1.48-27.91-3.96-29.41 13.59s-.74 37.31-1.01 54.99c-.47 31.5.44 63.05.04 94.54h-7l-.5-88.01-.5 88.01zM74.88 69.21c-.7-.39-3.62-.37-3.79-.21-1.27 1.19 8.2 16.44 9.52 18.97 6.37 12.23 12.08 24.76 17.62 37.38.33 1.58 3.3 2.19 3.86 1.63 2.27-2.26-23.15-51.95-27.2-57.78Zm60.21 144.78c.58.54 3.47-.24 4.02-1.47 12.93-19.69 29.73-36.19 45.5-53.5 1.26-.9-.33-2.86-1.03-3.01-2.04-.42-26.34 25.85-29.46 29.52-2.37 2.8-21.31 26.34-19.02 28.47Zm-81 9.01c-.85.85.64 3.12 1.43 4.06 3.26 3.92 14.29 10.61 19.09 14.91 10.18 9.1 16.94 18.25 25.24 28.76 3.11 3.93 5.11 2.09 3.05-2.05-5.42-10.88-22.66-27.91-32.35-35.65-2.11-1.68-14.89-11.59-16.46-10.02Zm65 48.99v-43h-1v43zm-2.01 5c.5-4.16-1.48-4.16-.98 0z" style="fill:#4f9755"/><path d="M118.09 386.99h-1l.5-88.01zM135.09 213.99c-2.29-2.13 16.65-25.67 19.02-28.47 3.12-3.67 27.41-29.95 29.46-29.52.71.15 2.3 2.11 1.03 3.01-15.77 17.32-32.57 33.81-45.5 53.5-.54 1.24-3.43 2.02-4.02 1.47ZM54.09 223c1.57-1.57 14.36 8.34 16.46 10.02 9.69 7.74 26.92 24.77 32.35 35.65 2.06 4.14.05 5.98-3.05 2.05-8.31-10.51-15.06-19.66-25.24-28.76-4.81-4.3-15.84-10.99-19.09-14.91-.79-.95-2.28-3.21-1.43-4.06ZM74.88 69.21c4.05 5.83 29.47 55.52 27.2 57.78-.56.55-3.53-.06-3.86-1.63-5.53-12.63-11.24-25.16-17.62-37.38-1.32-2.53-10.79-17.79-9.52-18.97.17-.16 3.09-.18 3.79.21ZM118.09 228.99h1v43h-1z" class="uuid-2d6ef2ce-3b5c-4cc1-aeed-4392e49d2fee"/></svg>