<svg xmlns="http://www.w3.org/2000/svg" id="uuid-31f628d2-2ba1-4f2e-bc33-6c03b8e129b1" viewBox="0 0 220.62 290.42"><defs><style>.uuid-afd5b848-0af4-4647-af40-66bc14dccbde{fill:#6fb368}</style></defs><path d="M103.3 290.42c-.62-43.82 1.88-87.89-3.01-131.49-.7-6.22-3-26.82-6.12-30.88s-24.29-8.43-30.85-11.15C24.12 100.68-2.96 59.83.26 16.87.57 12.79 1.44 6.99 4.28 3.9 5.84 2.21 13.22.55 15.75.36c59.34-4.49 103.13 33.21 95.43 94.43-1.16 9.18-6.8 22.7-6.98 30.12s3.21 19.08 4.09 27.02c.75 6.75 1.11 13.68 1.02 20.48 1.45.2 1.53-2.72 1.71-3.78 3.84-22.94 5.35-39.73 19.87-59.13 18.04-24.1 51.66-38.26 81.68-32.85 11.21 2.02 7.83 17.65 6.6 26.13-5.73 39.52-33.91 73.35-73.04 82.96-8.03 1.97-21.24 2.28-27.84 5.16-5.58 2.44-5.12 8.93-6.03 13.97l.04 85.54h-1l-.5-59.01-.5 59.01h-5l-.5-96.01-.5 96.01h-1Zm-11-178.01c.89-.88-.86-4.76-1.45-6.04-2.99-6.53-19.49-32.69-24.49-36.51-.94-.72-3.15-2.35-4.05-1.44-1.81 1.82 9.35 14.94 11.02 17.47 5.47 8.27 10.42 16.99 15.49 25.51.41 1.18 3.15 1.34 3.47 1.02Zm29.01 66 37.51-42.98c1.27-.9-.34-2.87-1.04-3.01-3.33-.67-21.56 20.83-24.44 24.54-4.66 5.99-11.99 13.83-12.04 21.45Z" style="fill:#4f9755"/><path d="M105.3 290.42h-1l.5-96.01zM111.3 290.42h-1l.5-59.01zM121.31 178.41c.05-7.62 7.37-15.46 12.04-21.45 2.88-3.7 21.11-25.21 24.44-24.54.7.14 2.3 2.11 1.04 3.01l-37.51 42.98ZM92.3 112.41c-.33.33-3.07.16-3.47-1.02-5.07-8.52-10.03-17.24-15.49-25.51-1.67-2.53-12.83-15.65-11.02-17.47.9-.91 3.11.72 4.05 1.44 5 3.82 21.5 29.98 24.49 36.51.59 1.28 2.34 5.16 1.45 6.04Z" class="uuid-afd5b848-0af4-4647-af40-66bc14dccbde"/></svg>