<?xml version="1.0" encoding="UTF-8"?><svg id="uuid-26642d83-90c5-41e8-bd11-7f52350adc6a" xmlns="http://www.w3.org/2000/svg" viewBox="0 0 331.12 489.65"><defs><style>.uuid-ee9dbf15-b4b5-4e96-a82d-94b4a6397c9a{fill:#4f9755;}.uuid-86dcf2fe-4835-4f48-9c69-8e2fb7a52c62{fill:#6fb368;}</style></defs><path class="uuid-ee9dbf15-b4b5-4e96-a82d-94b4a6397c9a" d="M158.18,489.65c-.95-18.12,1.29-37.51,0-55.49-.54-7.46-1.54-16.06-10.55-17.45-13.72-2.11-27.75.51-43.25-2.75-41.36-8.68-77.84-48.15-81.16-90.83-.82-10.54.16-11.64,9.97-14,28.9-6.93,63.72,2.86,86.02,22,23.26,19.96,29.95,42.02,36.02,71.01.36,1.72-1.1,2.98,1.96,2.49-.64-28.87-2.19-57.73-6.14-86.35-1.59-11.58-3.38-23.21-5.9-34.62-10.73,2.15-21.46,4.9-31.73,8.71-5.63,2.09-15.6,8.02-20.21,8.88-1.64.3-2.83.37-4.31-.55-1.01-.63-11.36-16.58-13.74-19.53-3.72-4.62-24.69-26.1-24.98-29.09-.78-7.94,24.03-29.87,28.84-38.11,5.33-9.13-.72-14.57-10.25-13.24-4.89.68-13.67,7.08-17.59,10.4-3.12,1.54-16.15,18.68-17.42,18.55-6.38-.67-14.88-17.42-17.05-23.06-7.99-20.68-3.25-27.95,14.81-38.15,10.12-5.72,48.91-17.85,52.9-24.1s-.09-13.39-6.78-14.67c-25.39-4.85-52.69,14.92-73.43,26.94C-.97,125.88-8.15,89.69,29.42,78.39c13.09-3.94,37.71-4.55,51.33-2.82,1.96.25,1.02,2.14,2.89,2.19s9.76-.94,11.8-1.35c7-1.41,8.61-7.9,5.19-13.72-6.84-11.61-33.21-11.82-45-11.09s-27.81,6.33-38.94,6.08c-3.75-.08,1.34-7.89,2.31-9.71C34.42,19.17,70.28-3.95,103.75.56c1.91.26,1.31,2.06,2.01,2.08,9.1.31,12.81,1.21,21.09,5.83,25.4,14.19,32.3,42.37,36.34,69.17,1.81,1.25,16.11-10.32,19.32-12.17,14.04-8.1,32.33-12.82,48.25-11.93,3.25.18,2.34,2.11,2.99,2.12,38.9,1.08,66.16,43.3,64.42,80.47-.11,2.37-2.08,17.6-4.49,17.49-14.48-19.48-45.28-52.06-70.99-53.04-10.91-.42-13.85,8.38-6.91,15.96,6.24,6.82,26.89,16.19,36.12,22.88,33.46,24.26,48.6,52.17,7.19,79.63-2.56,1.7-7.91,5.96-10.41,3.6-7.84-17.25-16.51-34.99-27.69-50.33-6.78-9.31-22.75-29.72-35.84-26.22-4.11,1.1-7.24,4.48-6.94,8.91.53,7.79,18.66,22.06,24.48,28.61,10.69,12.03,27.59,34.99,27.57,51.51-.01,11.31-13.52,19.8-22.42,24.67-3.54,1.94-22.98,11.32-25.54,9.7-2.1-1.32-.81-24.88-1.14-29.36-.88-11.84-6.15-30.97-14.01-39.99-2.2-2.52-5.43-6.28-9.21-5.34-12.26,3.03-4.02,23.36-2.9,31.45,2.21,15.96,3.5,29.67,2.06,45.78-1.86,20.85,4.81,43.57,7.07,65.09,1.31,12.46,2.36,25.45,3.05,37.95.43,7.8-1.12,15.96.97,23.53l11.47-25.01c2.5-6.46,11.37-15.05,12.85-21.16,1.11-4.59.13-8.18.69-12.31,8.23-61.24,44.4-101.31,109.47-96.5,30.04,2.22,32.17,9.25,25.03,37-11.63,45.17-50.52,76.8-97.02,79.98-8.29.57-28.27-2.22-33.5,4.5-4.46,5.73-11.23,20.72-14.17,27.83-13.03,31.5-13.72,62.96-12.82,96.68h-1l-.5-30.01-.5,30.01h-10ZM160.69,89.65l-2.01,3-58.08,168.96c-.84,1.27-.22,3.76,1.09,4.03,3.19.65,8.33-16.23,9.5-19.48,18.44-50.87,35.08-102.7,52.03-153.99l-2.53-2.52ZM95.41,122.43c1.07.52,2.82-.92,4.26-.79,6.61.57,23.05,4.45,19.05-8.03-2.46-7.68-25.38-8.38-31.6-6.49s-5.63,10.17,1.48,12.61c3.48,1.2,4.12,1.4,6.8,2.71ZM303.18,244.65h-23v1h23v-1ZM264.17,292.66c-2.09-.3-3.54.22-5.36,1.14-11.54,5.83-47.91,38.7-52.69,50.31-.65,1.57-1.35,2.67-.94,4.55,1.92.42,2.39-.98,3.4-2.09,12.44-13.69,21.46-24.88,36.12-36.88,4.58-3.74,14.72-9.46,17.99-13.01,1.25-1.36,1.83-1.99,1.47-4.01ZM145.17,407.65c.31-1.7-.4-2.92-1.14-4.35-5.18-9.98-43.59-41.3-54.3-45.7-4.42-1.81-6.84-.78-3.09,3.09,1.86,1.92,9.81,5.96,12.86,8.14,16.8,12.03,27.32,24.61,42.18,36.82,1.13.93,1.61,2.43,3.5,1.99ZM169.17,454.65v-6.99h-.98v6.99h.98Z"/><polygon class="uuid-86dcf2fe-4835-4f48-9c69-8e2fb7a52c62" points="169.18 489.65 168.18 489.65 168.68 459.64 169.18 489.65"/><path class="uuid-86dcf2fe-4835-4f48-9c69-8e2fb7a52c62" d="M160.69,89.65l2.53,2.52c-16.94,51.29-33.59,103.12-52.03,153.99-1.18,3.25-6.32,20.12-9.5,19.48-1.31-.27-1.93-2.76-1.09-4.03l58.08-168.96,2.01-3Z"/><path class="uuid-86dcf2fe-4835-4f48-9c69-8e2fb7a52c62" d="M264.17,292.66c.35,2.03-.22,2.66-1.47,4.01-3.28,3.55-13.42,9.26-17.99,13.01-14.66,11.99-23.68,23.19-36.12,36.88-1.01,1.11-1.48,2.51-3.4,2.09-.4-1.88.3-2.98.94-4.55,4.78-11.6,41.15-44.48,52.69-50.31,1.82-.92,3.27-1.43,5.36-1.14Z"/><path class="uuid-86dcf2fe-4835-4f48-9c69-8e2fb7a52c62" d="M145.17,407.65c-1.88.43-2.37-1.07-3.5-1.99-14.86-12.21-25.38-24.79-42.18-36.82-3.05-2.18-11-6.22-12.86-8.14-3.75-3.87-1.32-4.9,3.09-3.09,10.71,4.4,49.12,35.72,54.3,45.7.74,1.43,1.45,2.64,1.14,4.35Z"/><rect class="uuid-86dcf2fe-4835-4f48-9c69-8e2fb7a52c62" x="280.18" y="244.65" width="23" height="1"/><rect class="uuid-86dcf2fe-4835-4f48-9c69-8e2fb7a52c62" x="168.19" y="447.66" width=".98" height="6.99"/></svg>