<svg xmlns="http://www.w3.org/2000/svg" id="uuid-9f106fa8-317f-4f17-b8e4-9c681122a7ab" viewBox="0 0 492.29 378.91"><defs><style>.uuid-961f12b3-bf8e-4924-aa89-20706b91c6fa{fill:#eb490e}</style></defs><path d="M452.93 124.12c-13.49 75.77-25.2 151.96-39.68 227.57-5.67 14.69-18.9 26.55-35.27 27.18-1.04-1.66-3.79-1-5.48-1.02-85.6-1.06-171.27.8-256.88.05l-15.45-3.03c-8.44-3.93-14.51-9.33-18.69-17.78-15.68-77.06-29.36-155.22-42.27-232.98h413.73ZM36.21 104.14c-14.25-.4-27.91-.76-31.74-17.72C2.28 76.7 1.81 57.4 1.25 46.69.85 39.02-.63 25.76.33 18.82 1.97 6.79 14.46-.01 25.66.19c150.38 1.07 301.13-1.91 451.3 1.5 5.98 1.36 13.11 7.38 14.52 13.46 2.28 9.85-.92 26.99-1.56 37.54-.94 15.52 2.68 44.39-16.18 49.77-5.23 1.49-11.57.7-16.1 1.66-.44.09-1.64 1.74-1.71 2.01.56-3.03-1.53-1.92-3.45-2-137.46-5.43-278.43 3.91-416.27 0Z" class="uuid-961f12b3-bf8e-4924-aa89-20706b91c6fa"/><path d="M36.21 102.85c137.84 4.16 278.82-5.78 416.27 0 1.93.08 4.01-1.09 3.45 2.13-1.27 5.41-2.02 13.29-3 19.14H39.2c-1.1-7.04-1.97-14.21-3-21.27Z" style="fill:#5e2111"/><path d="m377.98 378.87-265.36.04c-4.62.04-8.49-2.18-12.46-4.03l15.45 3.03c85.61.75 171.28-1.12 256.88-.05 1.69.02 4.44-.64 5.48 1.02Z" style="fill:#b14321"/></svg>