<svg xmlns="http://www.w3.org/2000/svg" viewBox="0 0 588.36 473.49"><path d="M212.53 470.44c-2.81-3.82-2.19-6.89-1.99-11.48.91-20.93 6.13-43.94 6.97-64.96.09-2.17.38-4.37-.54-6.44L96.63 225.14l-1.78-1.22-88.22-13.71c-5.29-2.04-8.51-9.51-5.48-14.51 29.38-31.68 61.15-61.45 91.43-92.41 4.98-5.23 13.74-4.96 18 1 7.44 28.85 9.82 59.18 16.56 88.35 24.63 27.45 50.76 53.64 76.03 80.35 2.94 3.11 23.01 26.55 24.83 26.6.7.02 2.04-2.2 1.25-3.19 4.5-51.98 5.47-106.06 12.37-158C255.59 33.44 356.25-24.37 455.91 9.85c65.63 22.54 94.81 77.9 102.39 143.4 7.58 65.57 12.13 133.17 18.46 198.34 3.4 34.92 10.35 73.64 11.51 108.36.17 5.05.61 11.06-4.98 13.48l-361.32.06zm138.91-317.69v24.98h166.89c.63-8.39-.41-16.75-1-24.98C507.42 14.48 313.65.88 283.94 133.72l-2.47 18.56c23.3.9 46.67.43 69.98.47Z" style="fill:#fdbf00"/><path d="M517.33 152.75c.59 8.23 1.63 16.58 1 24.98H351.44v-24.98c55.28.1 110.61-.07 165.89 0" style="fill:#5e2111"/></svg>