<svg xmlns="http://www.w3.org/2000/svg" id="uuid-cb2bbc4c-07e6-4690-877b-bff6f94d4a8c" viewBox="0 0 191.93 273.65"><defs><style>.uuid-4a0032d2-fc7e-4290-acbb-f48e1df5e914{fill:#68a95a}</style></defs><path d="M94.64 272.34c-.28-.29-.53-.64-.73-1.06-.72-1.51-.67-3.25-.61-4.92 0-17.28 1.78-34.54 1.78-51.83-.06-2.18-.18-4.43-1.16-6.38-1.62-3.21-6.31-4.05-9.45-5.3-3.72-1.48-7.47-2.9-11.21-4.33-5.92-2.27-12.28-4.23-17.83-7.34-20.98-11.75-40.6-33.16-48.97-55.98-2.08-5.66-7.25-24.61-6.36-29.66.72-4.11 18.99-1.78 23.08-1.07 33.76 5.87 60.93 33.43 70.88 65.55v-76c0-.99-14.46-6.31-17.71-8.65C42.93 61.33 34.32-15.76 87.66 2.88c26.01 9.09 35.76 38.22 31.07 63.33-1.89 10.12-12.68 25.58-12.68 32.31v49.5c11.62-32.1 40.8-56.17 75.2-58.79 3.59-.27 9.73-1.9 10.52 2.32.57 3.04-.63 7.04-1.19 10.01-1.24 6.59-2.7 13.34-4.87 19.7-6.75 19.72-26.83 42.75-44.78 53.18-8.64 5.02-19.04 7.51-28.17 11.7-6.01 2.76-5.81 8.26-6.72 14.28-.96 6.33-1.5 12.73-1.61 19.13-.08 4.5 2.44 53.46.62 53.46-2.98 0-8.02 1.8-10.42-.68Z" style="fill:#528d4d"/><path d="m93.89 198.75-7.13-17.34c-6.16-17.25-16.78-27.77-27.84-41.1-.93-1.12-2.42-1.62-1.99-3.49 11.38 5.04 19.74 16.1 25.78 26.67 5.91 10.35 11.95 23.14 11.18 35.26M103.2 186.99l7.13-17.34c6.16-17.25 16.78-27.77 27.84-41.1.93-1.12 2.42-1.62 1.99-3.49-11.38 5.04-19.74 16.1-25.78 26.67-5.91 10.35-11.95 23.14-11.18 35.26" class="uuid-4a0032d2-fc7e-4290-acbb-f48e1df5e914"/></svg>