<?xml version="1.0" encoding="UTF-8"?><svg id="uuid-10bc5b09-6464-4da7-8694-070060f27b79" xmlns="http://www.w3.org/2000/svg" viewBox="0 0 193.18 357.93"><defs><style>.uuid-ca496314-7931-456c-a1cd-f2f2bd7c37a1{fill:#68a95a;}.uuid-ba05b662-254a-4468-9390-4afc02e6ec42{fill:#af3a23;}.uuid-36aaaa8b-f53a-498c-af44-32f4a9abb959{fill:#ea5f39;}.uuid-660d5632-680c-4e99-9271-5c8849a5e444{fill:#cb4f31;}.uuid-724303fe-ed65-42d3-ac3b-c13fe7e624cf{fill:#528d4d;}</style></defs><path class="uuid-36aaaa8b-f53a-498c-af44-32f4a9abb959" d="M94.71,6.93c.34.22.71,1.68,1.51,1.98.98-.51-.75-1.74-.51-1.98,7.71-7.47,12.18-10.24,19.95-1.47,23.02,25.99,31.56,99-14.96,105.47-2.93.41-10,.36-12.99,0-46.4-5.59-35.62-82.94-12.82-106.33,8.15-8.36,11.64-2.97,19.81,2.33ZM102.71,105.92c3.34,3.13,12.11-14.1,13-16.47,8.25-22.05,2.8-57.88-13.6-75.43-15.05-16.11,6.62,21.31,7.62,24.37,5.47,16.72,6.29,35.97.67,52.75-.89,2.66-8.31,14.21-7.7,14.78Z"/><path class="uuid-660d5632-680c-4e99-9271-5c8849a5e444" d="M94.71,6.93h1c-.24.23,1.49,1.46.51,1.98-.8-.29-1.17-1.76-1.51-1.98Z"/><path class="uuid-724303fe-ed65-42d3-ac3b-c13fe7e624cf" d="M89.81,333.35c.07,8.38-.05,16.4-.09,24.58h10.99v-4c-.07-5.28.04-8.85-.04-16.09-.09-7.78-.14-15.57-.14-23.35s.05-15.58.14-23.36.23-15.56.41-23.34c.09-3.89.19-7.77.3-11.66.06-1.94-.04-3.85.02-5.79.02-.73.08-1.46.08-2.18,0-.8-.06-1.58.29-2.33.4-.84,1.22-1.42,2.08-1.77s1.81-.42,2.71-.68c3.25-.97,5.1-1.68,7.54-2.78s5.13-2.16,7.61-3.26c5.01-2.22,9.98-4.52,14.84-7.04s9.34-5.07,13.76-8,8.55-6.08,12.44-9.6,7.62-7.55,10.86-11.82c3.48-4.58,6.49-9.51,9.04-14.67.75-1.52,1.46-3.06,2.13-4.62,2.15-4.97,12.9-35.14,6.23-36.67-1.3-.3-23.43,2.8-26.39,3.51-29.66,7.17-53.84,33.15-63.91,61.48v-98.99c-2.94.41-10.01.36-13,0l.51,81.98c-5.03-11.48-10.25-22.89-18.53-32.44-10.57-12.19-32.89-25.99-48.68-29.46-1.57-.34-17.82-2.35-18.72-2.08-6.28,1.94,2.14,27.11,4.02,31.97,10.44,26.92,33.68,45.06,58.74,57.2,8.64,4.18,19.63,3.56,24.59,12.58l-1.43,60.25c-7.13-22.19-22.85-41.02-44.08-50.89-6.76-3.14-38.76-12.52-40.39-5.61-1.21,5.12,5.34,25.62,7.85,31.18,9.63,21.35,30.84,37.69,51.46,47.49,8.47,4.03,26.41,3.91,26.74,14.31"/><path class="uuid-ba05b662-254a-4468-9390-4afc02e6ec42" d="M102.71,105.92c-.61-.57,6.81-12.13,7.7-14.78,5.62-16.78,4.8-36.03-.67-52.75-1-3.06-22.67-40.48-7.62-24.37,16.39,17.55,21.84,53.39,13.6,75.43-.89,2.38-9.66,19.6-13,16.47Z"/><path class="uuid-ca496314-7931-456c-a1cd-f2f2bd7c37a1" d="M91.71,223.7l-7.13-17.34c-6.16-17.25-16.78-27.77-27.84-41.1-.93-1.12-2.42-1.62-1.99-3.49,11.38,5.04,19.74,16.1,25.78,26.67,5.91,10.35,11.95,23.14,11.18,35.26Z"/><path class="uuid-ca496314-7931-456c-a1cd-f2f2bd7c37a1" d="M101.03,238.08l7.13-17.34c6.16-17.25,16.78-27.77,27.84-41.1.93-1.12,2.42-1.62,1.99-3.49-11.38,5.04-19.74,16.1-25.78,26.67-5.91,10.35-11.95,23.14-11.18,35.26Z"/><path class="uuid-ca496314-7931-456c-a1cd-f2f2bd7c37a1" d="M94.77,329.16l-7.13-17.34c-6.16-17.25-16.78-27.77-27.84-41.1-.93-1.12-2.42-1.62-1.99-3.49,11.38,5.04,19.74,16.1,25.78,26.67,5.91,10.35,11.95,23.14,11.18,35.26Z"/></svg>