<svg xmlns="http://www.w3.org/2000/svg" viewBox="0 0 170.09 167.46"><path d="M79.03 165.77c-2-2.42-1.52-7.14-1.55-10.26-.06-6.73.28-13.46.61-20.18.68-13.72 2.01-27.59 1.29-41.33-.16-3.11-.25-6.66-1.58-9.54-1.49-3.2-12.73-5.07-15.73-6.04-7.06-2.27-14.04-4.93-20.37-8.84-11.99-7.41-21.6-18.97-29.47-30.5C5.62 29.42-3.43 14.3 1.33 2.14 2.68-1.32 14.91.39 17.81.66c6.54.6 12.99 2.11 19.13 4.44C62 14.58 79.24 37.43 84.31 63.45 94.23 33.2 126.07 7.69 157.8 5.52c11.14-.76 12.95-2.17 12.14 9.16-1.67 23.37-22.32 49.98-43.32 59.63-5.4 2.48-11.65 3.56-17.38 5.01-4.76 1.2-10.43 1.07-14.71 3.73-5.35 3.33-4.78 10.31-4.66 15.89.44 19.2 3.33 38.43 1.37 57.53-.23 2.26-.54 4.55-1.56 6.58-1.72 3.42-7.6 6.39-10.64 2.71Z" style="fill:#528d4d"/></svg>