<?xml version="1.0" encoding="UTF-8"?><svg id="uuid-40a8b1be-13c0-4b61-98e0-b7db7429b6f7" xmlns="http://www.w3.org/2000/svg" viewBox="0 0 228.98 426.07"><defs><style>.uuid-31a0aa08-5c5f-4138-a8ef-0f674b499ea0{fill:#60a258;}.uuid-5eeb8350-8db2-4454-afd8-0d8054a2d306{fill:#68a95a;}.uuid-f35c49af-8df6-464a-9c7b-c6cfce2596d4{fill:#af3a23;}.uuid-3e00aaa6-d9fc-4d98-84c7-9a33f4919254{fill:#eb5d38;}.uuid-f4786d37-bd0b-4052-bd92-ba6c161ea703{fill:#528d4d;}</style></defs><path class="uuid-3e00aaa6-d9fc-4d98-84c7-9a33f4919254" d="M121.98,133.07c-3.48.4-9.39.26-12.99,0-39.46-2.9-50.42-39.33-47.81-73.36.53-6.91,8.89-52.73,12.55-54.69,3.91-2.1,17.95,2.87,21.27,5.05.15.1-.28,2.48,1.03,3.43,32.42,23.58,52.38,66.77,34.43,105.55,15.87-18.57,12.25-50.57,2.39-71.35-2.19-4.62-17.42-23.22-16.85-24.6.37-.9,14.51-7.99,16.95-9.54,2.29-1.46.41-2.48,4.02-4.48.13-.07,1.4,1.29,2.91.5,6.54-3.38,13.49-12.6,19.58-.52,5.3,10.51,11.46,60.69,9.93,73.02-3.17,25.41-20.79,47.95-47.41,50.99Z"/><path class="uuid-f4786d37-bd0b-4052-bd92-ba6c161ea703" d="M227.98,188.46c-5.87-7.04-46.86,6.18-54.76,10.29-25.63,13.34-42.19,38.46-51.24,65.32v-131c-3.48.4-9.39.26-12.99,0v101.99c-7.41-23.31-22.04-46.19-41.75-61-13.17-9.9-46.76-23.93-62.73-23.06-7.18.39-3.87,15.05-2.95,20.1,6.68,36.67,37.21,69.51,70.5,84.43,6.23,2.79,36.93,11.1,36.93,16.04v75.5c-7.62-22.94-21.93-43.71-42.24-57.23-16.38-10.9-25.91-14.53-44.52-18.45-.28-.06-6.84-1.07-11.66-.4-10.1,1.4.91,30.26,3.63,36.45,8.69,19.81,29.31,41.17,48.17,51.79,6.98,3.93,45.07,16.9,45.52,19.44,1.99,11.3.82,33.98,1.11,47.39h12.99v-121c5.31-2.86,8.44-3.82,13.05-6.45,33.76-19.25,64.45-30.8,82.39-67.53,3.32-6.8,15-37.31,10.56-42.64ZM120.98,136.07v5c-4.21-.25-2.34-2.96,0-5Z"/><path class="uuid-31a0aa08-5c5f-4138-a8ef-0f674b499ea0" d="M120.98,136.07v5c-4.21-.25-2.34-2.96,0-5Z"/><path class="uuid-f35c49af-8df6-464a-9c7b-c6cfce2596d4" d="M136.97,9.07c-3.61,2-1.72,3.02-4.02,4.48-2.44,1.56-16.58,8.64-16.95,9.54-.57,1.38,14.66,19.99,16.85,24.6,9.87,20.78,13.48,52.79-2.39,71.35,17.95-38.77-2.01-81.96-34.43-105.55-1.31-.95-.88-3.33-1.03-3.43,10.27-12.99,31.01-13.5,41.96-1Z"/><path class="uuid-5eeb8350-8db2-4454-afd8-0d8054a2d306" d="M119.79,298.11l7.13-17.34c6.16-17.25,16.78-27.77,27.84-41.1.93-1.12,2.42-1.62,1.99-3.49-11.38,5.04-19.74,16.1-25.78,26.67-5.91,10.35-11.95,23.14-11.18,35.26Z"/><path class="uuid-5eeb8350-8db2-4454-afd8-0d8054a2d306" d="M111.82,267.14l-7.13-17.34c-6.16-17.25-16.78-27.77-27.84-41.1-.93-1.12-2.42-1.62-1.99-3.49,11.38,5.04,19.74,16.1,25.78,26.67,5.91,10.35,11.95,23.14,11.18,35.26Z"/><path class="uuid-5eeb8350-8db2-4454-afd8-0d8054a2d306" d="M113.49,382.72l-7.13-17.34c-6.16-17.25-16.78-27.77-27.84-41.1-.93-1.12-2.42-1.62-1.99-3.49,11.38,5.04,19.74,16.1,25.78,26.67,5.91,10.35,11.95,23.14,11.18,35.26Z"/></svg>